<?xml version="1.0" encoding="UTF-8"?>
<svg xmlns="http://www.w3.org/2000/svg" xmlns:xlink="http://www.w3.org/1999/xlink" width="260pt" height="93pt" viewBox="0 0 260 93" version="1.1">
<g id="surface1">
<path style=" stroke:none;fill-rule:nonzero;fill:rgb(0%,0%,0%);fill-opacity:1;" d="M 27.109375 91.34375 C 26.328125 90.144531 1.753906 47.660156 1.582031 47.21875 C 1.480469 46.949219 25.792969 4.53125 27.269531 2.40625 L 27.753906 1.714844 L 79.644531 1.714844 L 80.476562 3.039062 C 80.933594 3.765625 86.738281 13.757812 93.378906 25.242188 L 105.449219 46.121094 L 155.644531 46.121094 L 167.964844 24.609375 C 174.738281 12.78125 180.5 2.789062 180.761719 2.40625 L 181.242188 1.714844 L 233.09375 1.714844 L 233.574219 2.40625 C 235.054688 4.53125 259.367188 46.949219 259.261719 47.21875 C 259.09375 47.660156 234.515625 90.144531 233.734375 91.34375 L 233.121094 92.289062 L 181.242188 92.289062 L 180.761719 91.597656 C 180.5 91.214844 174.738281 81.226562 167.964844 69.394531 L 155.644531 47.886719 L 105.449219 47.886719 L 93.378906 68.765625 C 86.738281 80.246094 80.933594 90.238281 80.476562 90.96875 L 79.644531 92.289062 L 27.726562 92.289062 Z M 91.375 68.765625 L 103.96875 47.003906 L 78.78125 3.480469 L 28.578125 3.480469 L 15.980469 25.242188 L 3.386719 47.003906 L 15.984375 68.765625 L 28.578125 90.527344 L 78.78125 90.527344 Z M 31.734375 83.3125 C 31.492188 83.023438 31.476562 82.796875 31.667969 82.492188 C 31.910156 82.105469 33.660156 82.074219 53.679688 82.074219 C 73.699219 82.074219 75.445312 82.105469 75.6875 82.492188 C 75.882812 82.796875 75.863281 83.023438 75.625 83.3125 C 75.324219 83.671875 73.089844 83.714844 53.679688 83.714844 C 34.265625 83.714844 32.03125 83.671875 31.734375 83.3125 Z M 11.339844 48.015625 C 11.167969 47.808594 11.085938 47.488281 11.15625 47.304688 C 11.34375 46.8125 31.988281 11.308594 32.570312 10.46875 C 32.84375 10.078125 33.238281 9.796875 33.453125 9.835938 C 34.710938 10.085938 34.609375 10.277344 23.816406 28.863281 C 18.019531 38.839844 13.0625 47.316406 12.792969 47.695312 C 12.253906 48.472656 11.800781 48.574219 11.339844 48.015625 Z M 94.570312 47.710938 C 94.300781 47.320312 89.335938 38.839844 83.542969 28.863281 C 72.746094 10.277344 72.648438 10.085938 73.902344 9.835938 C 74.117188 9.796875 74.511719 10.078125 74.785156 10.46875 C 75.054688 10.855469 80.019531 19.335938 85.816406 29.3125 C 96.613281 47.898438 96.710938 48.09375 95.453125 48.339844 C 95.242188 48.382812 94.84375 48.097656 94.570312 47.710938 Z M 244.863281 68.765625 L 257.460938 47.003906 L 232.269531 3.480469 L 182.070312 3.480469 L 169.667969 25.113281 C 162.851562 37.015625 157.269531 46.863281 157.269531 47.003906 C 157.269531 47.140625 162.851562 56.992188 169.667969 68.890625 L 182.070312 90.527344 L 232.269531 90.527344 Z M 186.066406 83.535156 C 185.796875 83.148438 180.890625 74.609375 175.160156 64.566406 C 164.496094 45.859375 164.398438 45.65625 165.644531 45.414062 C 165.859375 45.371094 166.253906 45.652344 166.519531 46.042969 C 166.789062 46.433594 171.695312 54.96875 177.425781 65.015625 C 188.089844 83.722656 188.1875 83.921875 186.941406 84.167969 C 186.730469 84.210938 186.335938 83.925781 186.066406 83.535156 Z M 226.820312 83.832031 C 226.585938 83.546875 226.570312 83.296875 226.761719 82.886719 C 227.3125 81.707031 248.046875 45.976562 248.371094 45.644531 C 248.761719 45.242188 249.453125 45.425781 249.667969 45.980469 C 249.753906 46.207031 245.582031 53.683594 239.285156 64.59375 C 233.496094 74.625 228.546875 83.140625 228.28125 83.523438 C 227.738281 84.304688 227.292969 84.398438 226.820312 83.832031 Z M 185.222656 11.660156 C 184.980469 11.367188 184.964844 11.144531 185.15625 10.839844 C 185.402344 10.453125 187.148438 10.417969 207.167969 10.417969 C 227.1875 10.417969 228.933594 10.453125 229.179688 10.839844 C 229.371094 11.144531 229.351562 11.367188 229.113281 11.660156 C 228.8125 12.015625 226.578125 12.058594 207.167969 12.058594 C 187.753906 12.058594 185.519531 12.015625 185.222656 11.660156 Z M 185.222656 11.660156 "/>
</g>
</svg>
