<?xml version="1.0" encoding="UTF-8"?>
<svg xmlns="http://www.w3.org/2000/svg" xmlns:xlink="http://www.w3.org/1999/xlink" width="346pt" height="208pt" viewBox="0 0 346 208" version="1.1">
<g id="surface1">
<path style=" stroke:none;fill-rule:nonzero;fill:rgb(0%,0%,0%);fill-opacity:1;" d="M 64.292969 15.132812 L 64.292969 17.402344 C 63.570312 16.726562 62.800781 16.222656 61.980469 15.890625 C 61.164062 15.554688 60.292969 15.386719 59.371094 15.386719 C 57.558594 15.386719 56.167969 15.945312 55.203125 17.058594 C 54.238281 18.167969 53.757812 19.773438 53.757812 21.871094 C 53.757812 23.964844 54.238281 25.570312 55.203125 26.683594 C 56.167969 27.796875 57.558594 28.351562 59.371094 28.351562 C 60.292969 28.351562 61.164062 28.183594 61.980469 27.847656 C 62.800781 27.515625 63.570312 27.007812 64.292969 26.335938 L 64.292969 28.578125 C 63.542969 29.09375 62.746094 29.476562 61.90625 29.734375 C 61.066406 29.988281 60.179688 30.117188 59.242188 30.117188 C 56.84375 30.117188 54.949219 29.382812 53.566406 27.910156 C 52.183594 26.4375 51.496094 24.425781 51.496094 21.871094 C 51.496094 19.316406 52.183594 17.304688 53.566406 15.832031 C 54.949219 14.355469 56.84375 13.621094 59.242188 13.621094 C 60.191406 13.621094 61.085938 13.746094 61.925781 14 C 62.765625 14.25 63.554688 14.628906 64.292969 15.132812 Z M 64.292969 15.132812 "/>
<path style=" stroke:none;fill-rule:nonzero;fill:rgb(0%,0%,0%);fill-opacity:1;" d="M 67.527344 13.238281 L 69.484375 13.238281 L 69.484375 29.804688 L 67.527344 29.804688 Z M 67.527344 13.238281 "/>
<path style=" stroke:none;fill-rule:nonzero;fill:rgb(0%,0%,0%);fill-opacity:1;" d="M 152.898438 15.132812 L 152.898438 17.402344 C 152.175781 16.726562 151.40625 16.222656 150.585938 15.890625 C 149.765625 15.554688 148.898438 15.386719 147.976562 15.386719 C 146.160156 15.386719 144.773438 15.945312 143.808594 17.058594 C 142.84375 18.167969 142.359375 19.773438 142.359375 21.871094 C 142.359375 23.964844 142.84375 25.570312 143.808594 26.683594 C 144.773438 27.796875 146.160156 28.351562 147.976562 28.351562 C 148.898438 28.351562 149.765625 28.183594 150.585938 27.847656 C 151.40625 27.515625 152.175781 27.007812 152.898438 26.335938 L 152.898438 28.578125 C 152.148438 29.09375 151.351562 29.476562 150.507812 29.734375 C 149.671875 29.988281 148.78125 30.117188 147.847656 30.117188 C 145.445312 30.117188 143.554688 29.382812 142.167969 27.910156 C 140.789062 26.4375 140.097656 24.425781 140.097656 21.871094 C 140.097656 19.316406 140.789062 17.304688 142.167969 15.832031 C 143.554688 14.355469 145.445312 13.621094 147.847656 13.621094 C 148.796875 13.621094 149.691406 13.746094 150.527344 14 C 151.371094 14.25 152.160156 14.628906 152.898438 15.132812 Z M 152.898438 15.132812 "/>
<path style=" stroke:none;fill-rule:nonzero;fill:rgb(0%,0%,0%);fill-opacity:1;" d="M 156.128906 13.238281 L 158.085938 13.238281 L 158.085938 29.804688 L 156.128906 29.804688 Z M 156.128906 13.238281 "/>
<path style=" stroke:none;fill-rule:nonzero;fill:rgb(0%,0%,0%);fill-opacity:1;" d="M 196.824219 15.132812 L 196.824219 17.402344 C 196.105469 16.726562 195.332031 16.222656 194.511719 15.890625 C 193.695312 15.554688 192.824219 15.386719 191.902344 15.386719 C 190.089844 15.386719 188.699219 15.945312 187.734375 17.058594 C 186.769531 18.167969 186.289062 19.773438 186.289062 21.871094 C 186.289062 23.964844 186.769531 25.570312 187.734375 26.683594 C 188.699219 27.796875 190.089844 28.351562 191.902344 28.351562 C 192.824219 28.351562 193.695312 28.183594 194.511719 27.847656 C 195.332031 27.515625 196.105469 27.007812 196.824219 26.335938 L 196.824219 28.578125 C 196.074219 29.09375 195.277344 29.476562 194.4375 29.734375 C 193.597656 29.988281 192.710938 30.117188 191.773438 30.117188 C 189.375 30.117188 187.480469 29.382812 186.097656 27.910156 C 184.714844 26.4375 184.027344 24.425781 184.027344 21.871094 C 184.027344 19.316406 184.714844 17.304688 186.097656 15.832031 C 187.480469 14.355469 189.375 13.621094 191.773438 13.621094 C 192.722656 13.621094 193.617188 13.746094 194.457031 14 C 195.296875 14.25 196.085938 14.628906 196.824219 15.132812 Z M 196.824219 15.132812 "/>
<path style=" stroke:none;fill-rule:nonzero;fill:rgb(0%,0%,0%);fill-opacity:1;" d="M 200.058594 13.238281 L 202.015625 13.238281 L 202.015625 29.804688 L 200.058594 29.804688 Z M 200.058594 13.238281 "/>
<path style=" stroke:none;fill-rule:nonzero;fill:rgb(0%,0%,0%);fill-opacity:1;" d="M 285.429688 15.132812 L 285.429688 17.402344 C 284.707031 16.726562 283.9375 16.222656 283.117188 15.890625 C 282.300781 15.554688 281.429688 15.386719 280.507812 15.386719 C 278.691406 15.386719 277.304688 15.945312 276.339844 17.058594 C 275.375 18.167969 274.890625 19.773438 274.890625 21.871094 C 274.890625 23.964844 275.375 25.570312 276.339844 26.683594 C 277.304688 27.796875 278.691406 28.351562 280.507812 28.351562 C 281.429688 28.351562 282.300781 28.183594 283.117188 27.847656 C 283.9375 27.515625 284.707031 27.007812 285.429688 26.335938 L 285.429688 28.578125 C 284.679688 29.09375 283.882812 29.476562 283.039062 29.734375 C 282.203125 29.988281 281.316406 30.117188 280.378906 30.117188 C 277.980469 30.117188 276.085938 29.382812 274.703125 27.910156 C 273.320312 26.4375 272.628906 24.425781 272.628906 21.871094 C 272.628906 19.316406 273.320312 17.304688 274.703125 15.832031 C 276.085938 14.355469 277.980469 13.621094 280.378906 13.621094 C 281.328125 13.621094 282.222656 13.746094 283.058594 14 C 283.902344 14.25 284.691406 14.628906 285.429688 15.132812 Z M 285.429688 15.132812 "/>
<path style=" stroke:none;fill-rule:nonzero;fill:rgb(0%,0%,0%);fill-opacity:1;" d="M 288.664062 13.238281 L 290.617188 13.238281 L 290.617188 29.804688 L 288.664062 29.804688 Z M 288.664062 13.238281 "/>
<path style=" stroke:none;fill-rule:nonzero;fill:rgb(0%,0%,0%);fill-opacity:1;" d="M 329.730469 92.21875 L 329.730469 94.488281 C 329.007812 93.816406 328.238281 93.3125 327.417969 92.976562 C 326.597656 92.640625 325.730469 92.472656 324.808594 92.472656 C 322.992188 92.472656 321.605469 93.03125 320.640625 94.144531 C 319.675781 95.257812 319.191406 96.859375 319.191406 98.957031 C 319.191406 101.054688 319.675781 102.65625 320.640625 103.773438 C 321.605469 104.882812 322.992188 105.4375 324.808594 105.4375 C 325.730469 105.4375 326.597656 105.269531 327.417969 104.933594 C 328.238281 104.601562 329.007812 104.097656 329.730469 103.421875 L 329.730469 105.667969 C 328.980469 106.179688 328.183594 106.566406 327.339844 106.824219 C 326.503906 107.078125 325.613281 107.203125 324.679688 107.203125 C 322.277344 107.203125 320.386719 106.46875 319 105 C 317.621094 103.523438 316.929688 101.511719 316.929688 98.957031 C 316.929688 96.402344 317.621094 94.390625 319 92.917969 C 320.386719 91.445312 322.277344 90.707031 324.679688 90.707031 C 325.628906 90.707031 326.523438 90.832031 327.359375 91.089844 C 328.203125 91.339844 328.992188 91.714844 329.730469 92.21875 Z M 329.730469 92.21875 "/>
<path style=" stroke:none;fill-rule:nonzero;fill:rgb(0%,0%,0%);fill-opacity:1;" d="M 332.960938 90.324219 L 334.917969 90.324219 L 334.917969 106.894531 L 332.960938 106.894531 Z M 332.960938 90.324219 "/>
<path style=" stroke:none;fill-rule:nonzero;fill:rgb(0%,0%,0%);fill-opacity:1;" d="M 19.617188 91.84375 L 19.617188 94.113281 C 18.894531 93.4375 18.125 92.933594 17.304688 92.601562 C 16.488281 92.265625 15.617188 92.097656 14.695312 92.097656 C 12.878906 92.097656 11.492188 92.65625 10.527344 93.769531 C 9.5625 94.878906 9.078125 96.484375 9.078125 98.582031 C 9.078125 100.675781 9.5625 102.28125 10.527344 103.394531 C 11.492188 104.503906 12.878906 105.058594 14.695312 105.058594 C 15.617188 105.058594 16.488281 104.894531 17.304688 104.558594 C 18.125 104.222656 18.894531 103.71875 19.617188 103.046875 L 19.617188 105.289062 C 18.867188 105.804688 18.070312 106.1875 17.226562 106.445312 C 16.390625 106.699219 15.503906 106.828125 14.566406 106.828125 C 12.164062 106.828125 10.273438 106.09375 8.890625 104.621094 C 7.507812 103.148438 6.816406 101.132812 6.816406 98.582031 C 6.816406 96.027344 7.507812 94.015625 8.890625 92.542969 C 10.273438 91.066406 12.164062 90.328125 14.566406 90.328125 C 15.515625 90.328125 16.410156 90.457031 17.246094 90.710938 C 18.089844 90.960938 18.878906 91.339844 19.617188 91.84375 Z M 19.617188 91.84375 "/>
<path style=" stroke:none;fill-rule:nonzero;fill:rgb(0%,0%,0%);fill-opacity:1;" d="M 22.851562 89.949219 L 24.804688 89.949219 L 24.804688 106.515625 L 22.851562 106.515625 Z M 22.851562 89.949219 "/>
<path style=" stroke:none;fill-rule:nonzero;fill:rgb(0%,0%,0%);fill-opacity:1;" d="M 63.917969 168.554688 L 63.917969 170.824219 C 63.199219 170.148438 62.425781 169.644531 61.605469 169.308594 C 60.789062 168.976562 59.917969 168.808594 58.996094 168.808594 C 57.183594 168.808594 55.792969 169.367188 54.828125 170.480469 C 53.863281 171.589844 53.382812 173.195312 53.382812 175.292969 C 53.382812 177.386719 53.863281 178.992188 54.828125 180.105469 C 55.792969 181.214844 57.183594 181.769531 58.996094 181.769531 C 59.917969 181.769531 60.789062 181.605469 61.605469 181.269531 C 62.425781 180.933594 63.199219 180.429688 63.917969 179.753906 L 63.917969 182 C 63.167969 182.511719 62.371094 182.898438 61.53125 183.15625 C 60.691406 183.410156 59.804688 183.539062 58.867188 183.539062 C 56.46875 183.539062 54.574219 182.804688 53.191406 181.332031 C 51.808594 179.859375 51.121094 177.84375 51.121094 175.292969 C 51.121094 172.738281 51.808594 170.726562 53.191406 169.253906 C 54.574219 167.777344 56.46875 167.039062 58.867188 167.039062 C 59.816406 167.039062 60.710938 167.167969 61.550781 167.421875 C 62.390625 167.671875 63.179688 168.050781 63.917969 168.554688 Z M 63.917969 168.554688 "/>
<path style=" stroke:none;fill-rule:nonzero;fill:rgb(0%,0%,0%);fill-opacity:1;" d="M 67.152344 166.660156 L 69.109375 166.660156 L 69.109375 183.226562 L 67.152344 183.226562 Z M 67.152344 166.660156 "/>
<path style=" stroke:none;fill-rule:nonzero;fill:rgb(0%,0%,0%);fill-opacity:1;" d="M 152.523438 168.554688 L 152.523438 170.824219 C 151.800781 170.148438 151.03125 169.644531 150.210938 169.308594 C 149.394531 168.976562 148.523438 168.808594 147.601562 168.808594 C 145.785156 168.808594 144.398438 169.367188 143.433594 170.480469 C 142.46875 171.589844 141.984375 173.195312 141.984375 175.292969 C 141.984375 177.386719 142.46875 178.992188 143.433594 180.105469 C 144.398438 181.214844 145.785156 181.769531 147.601562 181.769531 C 148.523438 181.769531 149.394531 181.605469 150.210938 181.269531 C 151.03125 180.933594 151.800781 180.429688 152.523438 179.753906 L 152.523438 182 C 151.773438 182.511719 150.976562 182.898438 150.132812 183.15625 C 149.296875 183.410156 148.410156 183.539062 147.472656 183.539062 C 145.070312 183.539062 143.179688 182.804688 141.796875 181.332031 C 140.414062 179.859375 139.722656 177.84375 139.722656 175.292969 C 139.722656 172.738281 140.414062 170.726562 141.796875 169.253906 C 143.179688 167.777344 145.070312 167.039062 147.472656 167.039062 C 148.421875 167.039062 149.316406 167.167969 150.152344 167.421875 C 150.996094 167.671875 151.785156 168.050781 152.523438 168.554688 Z M 152.523438 168.554688 "/>
<path style=" stroke:none;fill-rule:nonzero;fill:rgb(0%,0%,0%);fill-opacity:1;" d="M 155.757812 166.660156 L 157.710938 166.660156 L 157.710938 183.226562 L 155.757812 183.226562 Z M 155.757812 166.660156 "/>
<path style=" stroke:none;fill-rule:nonzero;fill:rgb(0%,0%,0%);fill-opacity:1;" d="M 196.824219 168.929688 L 196.824219 171.199219 C 196.105469 170.523438 195.332031 170.019531 194.511719 169.683594 C 193.695312 169.351562 192.824219 169.183594 191.902344 169.183594 C 190.089844 169.183594 188.699219 169.742188 187.734375 170.855469 C 186.769531 171.964844 186.289062 173.570312 186.289062 175.667969 C 186.289062 177.761719 186.769531 179.367188 187.734375 180.480469 C 188.699219 181.589844 190.089844 182.144531 191.902344 182.144531 C 192.824219 182.144531 193.695312 181.980469 194.511719 181.644531 C 195.332031 181.308594 196.105469 180.804688 196.824219 180.132812 L 196.824219 182.375 C 196.074219 182.886719 195.277344 183.273438 194.4375 183.53125 C 193.597656 183.785156 192.710938 183.914062 191.773438 183.914062 C 189.375 183.914062 187.480469 183.179688 186.097656 181.707031 C 184.714844 180.234375 184.027344 178.21875 184.027344 175.667969 C 184.027344 173.113281 184.714844 171.101562 186.097656 169.628906 C 187.480469 168.152344 189.375 167.414062 191.773438 167.414062 C 192.722656 167.414062 193.617188 167.542969 194.457031 167.796875 C 195.296875 168.046875 196.085938 168.425781 196.824219 168.929688 Z M 196.824219 168.929688 "/>
<path style=" stroke:none;fill-rule:nonzero;fill:rgb(0%,0%,0%);fill-opacity:1;" d="M 200.058594 167.035156 L 202.015625 167.035156 L 202.015625 183.601562 L 200.058594 183.601562 Z M 200.058594 167.035156 "/>
<path style=" stroke:none;fill-rule:nonzero;fill:rgb(0%,0%,0%);fill-opacity:1;" d="M 285.429688 168.929688 L 285.429688 171.199219 C 284.707031 170.523438 283.9375 170.019531 283.117188 169.683594 C 282.300781 169.351562 281.429688 169.183594 280.507812 169.183594 C 278.691406 169.183594 277.304688 169.742188 276.339844 170.855469 C 275.375 171.964844 274.890625 173.570312 274.890625 175.667969 C 274.890625 177.761719 275.375 179.367188 276.339844 180.480469 C 277.304688 181.589844 278.691406 182.144531 280.507812 182.144531 C 281.429688 182.144531 282.300781 181.980469 283.117188 181.644531 C 283.9375 181.308594 284.707031 180.804688 285.429688 180.132812 L 285.429688 182.375 C 284.679688 182.886719 283.882812 183.273438 283.039062 183.53125 C 282.203125 183.785156 281.316406 183.914062 280.378906 183.914062 C 277.980469 183.914062 276.085938 183.179688 274.703125 181.707031 C 273.320312 180.234375 272.628906 178.21875 272.628906 175.667969 C 272.628906 173.113281 273.320312 171.101562 274.703125 169.628906 C 276.085938 168.152344 277.980469 167.414062 280.378906 167.414062 C 281.328125 167.414062 282.222656 167.542969 283.058594 167.796875 C 283.902344 168.046875 284.691406 168.425781 285.429688 168.929688 Z M 285.429688 168.929688 "/>
<path style=" stroke:none;fill-rule:nonzero;fill:rgb(0%,0%,0%);fill-opacity:1;" d="M 288.664062 167.035156 L 290.617188 167.035156 L 290.617188 183.601562 L 288.664062 183.601562 Z M 288.664062 167.035156 "/>
<path style="fill:none;stroke-width:1.3024;stroke-linecap:butt;stroke-linejoin:miter;stroke:rgb(0%,0%,0%);stroke-opacity:1;stroke-miterlimit:4;" d="M 126.301821 85.730734 L 107.415156 52.514853 " transform="matrix(1.153054,0,0,1.154733,0,0)"/>
<path style="fill:none;stroke-width:1.3024;stroke-linecap:butt;stroke-linejoin:miter;stroke:rgb(0%,0%,0%);stroke-opacity:1;stroke-miterlimit:4;" d="M 68.994766 52.514853 L 107.415156 52.514853 " transform="matrix(1.153054,0,0,1.154733,0,0)"/>
<path style="fill:none;stroke-width:1.3024;stroke-linecap:butt;stroke-linejoin:miter;stroke:rgb(0%,0%,0%);stroke-opacity:1;stroke-miterlimit:4;" d="M 71.925164 59.026776 L 104.484758 59.026776 " transform="matrix(1.153054,0,0,1.154733,0,0)"/>
<path style="fill:none;stroke-width:1.3024;stroke-linecap:butt;stroke-linejoin:miter;stroke:rgb(0%,0%,0%);stroke-opacity:1;stroke-miterlimit:4;" d="M 107.089932 118.946616 L 126.301821 85.730734 " transform="matrix(1.153054,0,0,1.154733,0,0)"/>
<path style="fill:none;stroke-width:1.3024;stroke-linecap:butt;stroke-linejoin:miter;stroke:rgb(0%,0%,0%);stroke-opacity:1;stroke-miterlimit:4;" d="M 103.183865 113.408944 L 119.461968 85.077851 " transform="matrix(1.153054,0,0,1.154733,0,0)"/>
<path style="fill:none;stroke-width:1.3024;stroke-linecap:butt;stroke-linejoin:miter;stroke:rgb(0%,0%,0%);stroke-opacity:1;stroke-miterlimit:4;" d="M 49.457655 85.730734 L 68.994766 52.514853 " transform="matrix(1.153054,0,0,1.154733,0,0)"/>
<path style="fill:none;stroke-width:1.3024;stroke-linecap:butt;stroke-linejoin:miter;stroke:rgb(0%,0%,0%);stroke-opacity:1;stroke-miterlimit:4;" d="M 68.669543 118.946616 L 107.089932 118.946616 " transform="matrix(1.153054,0,0,1.154733,0,0)"/>
<path style="fill:none;stroke-width:1.3024;stroke-linecap:butt;stroke-linejoin:miter;stroke:rgb(0%,0%,0%);stroke-opacity:1;stroke-miterlimit:4;" d="M 68.669543 118.946616 L 49.457655 85.730734 " transform="matrix(1.153054,0,0,1.154733,0,0)"/>
<path style="fill:none;stroke-width:1.3024;stroke-linecap:butt;stroke-linejoin:miter;stroke:rgb(0%,0%,0%);stroke-opacity:1;stroke-miterlimit:4;" d="M 72.900834 113.084194 L 56.619343 85.077851 " transform="matrix(1.153054,0,0,1.154733,0,0)"/>
<path style="fill:none;stroke-width:1.3024;stroke-linecap:butt;stroke-linejoin:miter;stroke:rgb(0%,0%,0%);stroke-opacity:1;stroke-miterlimit:4;" d="M 164.72221 86.055485 L 126.301821 85.730734 " transform="matrix(1.153054,0,0,1.154733,0,0)"/>
<path style="fill:none;stroke-width:1.3024;stroke-linecap:butt;stroke-linejoin:miter;stroke:rgb(0%,0%,0%);stroke-opacity:1;stroke-miterlimit:4;" d="M 241.566376 86.055485 L 222.354488 52.514853 " transform="matrix(1.153054,0,0,1.154733,0,0)"/>
<path style="fill:none;stroke-width:1.3024;stroke-linecap:butt;stroke-linejoin:miter;stroke:rgb(0%,0%,0%);stroke-opacity:1;stroke-miterlimit:4;" d="M 183.934099 52.514853 L 222.354488 52.514853 " transform="matrix(1.153054,0,0,1.154733,0,0)"/>
<path style="fill:none;stroke-width:1.3024;stroke-linecap:butt;stroke-linejoin:miter;stroke:rgb(0%,0%,0%);stroke-opacity:1;stroke-miterlimit:4;" d="M 186.861108 59.026776 L 219.42409 59.026776 " transform="matrix(1.153054,0,0,1.154733,0,0)"/>
<path style="fill:none;stroke-width:1.3024;stroke-linecap:butt;stroke-linejoin:miter;stroke:rgb(0%,0%,0%);stroke-opacity:1;stroke-miterlimit:4;" d="M 222.354488 119.271366 L 241.566376 86.055485 " transform="matrix(1.153054,0,0,1.154733,0,0)"/>
<path style="fill:none;stroke-width:1.3024;stroke-linecap:butt;stroke-linejoin:miter;stroke:rgb(0%,0%,0%);stroke-opacity:1;stroke-miterlimit:4;" d="M 218.123197 113.408944 L 234.401301 85.405984 " transform="matrix(1.153054,0,0,1.154733,0,0)"/>
<path style="fill:none;stroke-width:1.3024;stroke-linecap:butt;stroke-linejoin:miter;stroke:rgb(0%,0%,0%);stroke-opacity:1;stroke-miterlimit:4;" d="M 164.72221 86.055485 L 183.934099 52.514853 " transform="matrix(1.153054,0,0,1.154733,0,0)"/>
<path style="fill:none;stroke-width:1.3024;stroke-linecap:butt;stroke-linejoin:miter;stroke:rgb(0%,0%,0%);stroke-opacity:1;stroke-miterlimit:4;" d="M 183.934099 119.271366 L 222.354488 119.271366 " transform="matrix(1.153054,0,0,1.154733,0,0)"/>
<path style="fill:none;stroke-width:1.3024;stroke-linecap:butt;stroke-linejoin:miter;stroke:rgb(0%,0%,0%);stroke-opacity:1;stroke-miterlimit:4;" d="M 183.934099 119.271366 L 164.72221 86.055485 " transform="matrix(1.153054,0,0,1.154733,0,0)"/>
<path style="fill:none;stroke-width:1.3024;stroke-linecap:butt;stroke-linejoin:miter;stroke:rgb(0%,0%,0%);stroke-opacity:1;stroke-miterlimit:4;" d="M 188.165389 113.408944 L 171.883898 85.077851 " transform="matrix(1.153054,0,0,1.154733,0,0)"/>
<path style="fill:none;stroke-width:1.3024;stroke-linecap:butt;stroke-linejoin:miter;stroke:rgb(0%,0%,0%);stroke-opacity:1;stroke-miterlimit:4;" d="M 55.643673 29.393298 L 68.994766 52.514853 " transform="matrix(1.153054,0,0,1.154733,0,0)"/>
<path style="fill:none;stroke-width:1.3024;stroke-linecap:butt;stroke-linejoin:miter;stroke:rgb(0%,0%,0%);stroke-opacity:1;stroke-miterlimit:4;" d="M 120.766249 29.393298 L 107.415156 52.514853 " transform="matrix(1.153054,0,0,1.154733,0,0)"/>
<path style="fill:none;stroke-width:1.3024;stroke-linecap:butt;stroke-linejoin:miter;stroke:rgb(0%,0%,0%);stroke-opacity:1;stroke-miterlimit:4;" d="M 170.583005 29.393298 L 183.934099 52.514853 " transform="matrix(1.153054,0,0,1.154733,0,0)"/>
<path style="fill:none;stroke-width:1.3024;stroke-linecap:butt;stroke-linejoin:miter;stroke:rgb(0%,0%,0%);stroke-opacity:1;stroke-miterlimit:4;" d="M 235.705581 29.393298 L 222.354488 52.514853 " transform="matrix(1.153054,0,0,1.154733,0,0)"/>
<path style="fill:none;stroke-width:1.3024;stroke-linecap:butt;stroke-linejoin:miter;stroke:rgb(0%,0%,0%);stroke-opacity:1;stroke-miterlimit:4;" d="M 271.84602 86.055485 L 241.566376 86.055485 " transform="matrix(1.153054,0,0,1.154733,0,0)"/>
<path style="fill:none;stroke-width:1.3024;stroke-linecap:butt;stroke-linejoin:miter;stroke:rgb(0%,0%,0%);stroke-opacity:1;stroke-miterlimit:4;" d="M 24.384971 85.730734 L 49.457655 85.730734 " transform="matrix(1.153054,0,0,1.154733,0,0)"/>
<path style="fill:none;stroke-width:1.3024;stroke-linecap:butt;stroke-linejoin:miter;stroke:rgb(0%,0%,0%);stroke-opacity:1;stroke-miterlimit:4;" d="M 55.318449 142.392921 L 68.669543 118.946616 " transform="matrix(1.153054,0,0,1.154733,0,0)"/>
<path style="fill:none;stroke-width:1.3024;stroke-linecap:butt;stroke-linejoin:miter;stroke:rgb(0%,0%,0%);stroke-opacity:1;stroke-miterlimit:4;" d="M 120.766249 142.392921 L 107.089932 118.946616 " transform="matrix(1.153054,0,0,1.154733,0,0)"/>
<path style="fill:none;stroke-width:1.3024;stroke-linecap:butt;stroke-linejoin:miter;stroke:rgb(0%,0%,0%);stroke-opacity:1;stroke-miterlimit:4;" d="M 170.257782 142.717672 L 183.934099 119.271366 " transform="matrix(1.153054,0,0,1.154733,0,0)"/>
<path style="fill:none;stroke-width:1.3024;stroke-linecap:butt;stroke-linejoin:miter;stroke:rgb(0%,0%,0%);stroke-opacity:1;stroke-miterlimit:4;" d="M 236.030805 142.717672 L 222.354488 119.271366 " transform="matrix(1.153054,0,0,1.154733,0,0)"/>
</g>
</svg>
